# This file was created with Minddesk Qubicle 3.0
# Get Qubicle at www.getqubicle.com

mtllib plate-green.mtl

vn 0.0 0.0 1.0
vn 0.0 0.0 -1.0
vn -1.0 0.0 0.0
vn 1.0 0.0 0.0
vn 0.0 1.0 0.0
vn 0.0 -1.0 0.0

v 30.00000 31.00000 28.00000
v 30.00000 30.00000 28.00000
v 30.00000 30.00000 29.00000
v 30.00000 31.00000 29.00000
v 31.00000 30.00000 28.00000
v 31.00000 30.00000 29.00000
v 31.00000 31.00000 28.00000
v 30.00000 32.00000 28.00000
v 30.00000 32.00000 29.00000
v 31.00000 32.00000 28.00000
v 30.00000 33.00000 28.00000
v 30.00000 33.00000 29.00000
v 31.00000 33.00000 29.00000
v 31.00000 33.00000 28.00000
v 32.00000 30.00000 28.00000
v 32.00000 30.00000 29.00000
v 32.00000 31.00000 28.00000
v 32.00000 32.00000 28.00000
v 32.00000 33.00000 29.00000
v 32.00000 33.00000 28.00000
v 31.00000 32.00000 29.00000
v 32.00000 32.00000 29.00000
v 33.00000 30.00000 28.00000
v 33.00000 30.00000 29.00000
v 33.00000 31.00000 28.00000
v 33.00000 32.00000 28.00000
v 33.00000 33.00000 29.00000
v 33.00000 33.00000 28.00000
v 33.00000 32.00000 29.00000
v 34.00000 30.00000 28.00000
v 34.00000 30.00000 29.00000
v 34.00000 31.00000 28.00000
v 34.00000 32.00000 28.00000
v 34.00000 33.00000 29.00000
v 34.00000 33.00000 28.00000
v 34.00000 32.00000 29.00000
v 35.00000 31.00000 29.00000
v 35.00000 30.00000 29.00000
v 35.00000 30.00000 28.00000
v 35.00000 31.00000 28.00000
v 35.00000 32.00000 29.00000
v 35.00000 32.00000 28.00000
v 35.00000 33.00000 29.00000
v 35.00000 33.00000 28.00000
v 29.00000 31.00000 29.00000
v 29.00000 30.00000 29.00000
v 29.00000 30.00000 30.00000
v 29.00000 31.00000 30.00000
v 30.00000 30.00000 30.00000
v 29.00000 32.00000 29.00000
v 29.00000 32.00000 30.00000
v 29.00000 33.00000 29.00000
v 29.00000 33.00000 30.00000
v 30.00000 33.00000 30.00000
v 31.00000 30.00000 30.00000
v 31.00000 33.00000 30.00000
v 31.00000 32.00000 30.00000
v 30.00000 32.00000 30.00000
v 32.00000 30.00000 30.00000
v 32.00000 32.00000 30.00000
v 33.00000 30.00000 30.00000
v 33.00000 32.00000 30.00000
v 34.00000 30.00000 30.00000
v 34.00000 32.00000 30.00000
v 35.00000 30.00000 30.00000
v 34.00000 33.00000 30.00000
v 35.00000 33.00000 30.00000
v 35.00000 32.00000 30.00000
v 36.00000 31.00000 30.00000
v 36.00000 30.00000 30.00000
v 36.00000 30.00000 29.00000
v 36.00000 31.00000 29.00000
v 36.00000 32.00000 30.00000
v 36.00000 32.00000 29.00000
v 36.00000 33.00000 30.00000
v 36.00000 33.00000 29.00000
v 28.00000 31.00000 30.00000
v 28.00000 30.00000 30.00000
v 28.00000 30.00000 31.00000
v 28.00000 31.00000 31.00000
v 29.00000 30.00000 31.00000
v 28.00000 32.00000 30.00000
v 28.00000 32.00000 31.00000
v 28.00000 33.00000 30.00000
v 28.00000 33.00000 31.00000
v 29.00000 33.00000 31.00000
v 30.00000 30.00000 31.00000
v 30.00000 33.00000 31.00000
v 30.00000 32.00000 31.00000
v 29.00000 32.00000 31.00000
v 31.00000 30.00000 31.00000
v 31.00000 32.00000 31.00000
v 32.00000 30.00000 31.00000
v 32.00000 32.00000 31.00000
v 33.00000 30.00000 31.00000
v 33.00000 32.00000 31.00000
v 34.00000 30.00000 31.00000
v 34.00000 32.00000 31.00000
v 35.00000 30.00000 31.00000
v 35.00000 32.00000 31.00000
v 36.00000 30.00000 31.00000
v 35.00000 33.00000 31.00000
v 36.00000 33.00000 31.00000
v 36.00000 32.00000 31.00000
v 37.00000 31.00000 31.00000
v 37.00000 30.00000 31.00000
v 37.00000 30.00000 30.00000
v 37.00000 31.00000 30.00000
v 37.00000 32.00000 31.00000
v 37.00000 32.00000 30.00000
v 37.00000 33.00000 31.00000
v 37.00000 33.00000 30.00000
v 28.00000 30.00000 32.00000
v 28.00000 31.00000 32.00000
v 29.00000 30.00000 32.00000
v 28.00000 32.00000 32.00000
v 29.00000 33.00000 32.00000
v 29.00000 32.00000 32.00000
v 28.00000 33.00000 32.00000
v 30.00000 30.00000 32.00000
v 30.00000 32.00000 32.00000
v 31.00000 30.00000 32.00000
v 31.00000 32.00000 32.00000
v 32.00000 30.00000 32.00000
v 32.00000 32.00000 32.00000
v 33.00000 30.00000 32.00000
v 33.00000 32.00000 32.00000
v 34.00000 30.00000 32.00000
v 34.00000 32.00000 32.00000
v 35.00000 30.00000 32.00000
v 35.00000 32.00000 32.00000
v 36.00000 30.00000 32.00000
v 36.00000 32.00000 32.00000
v 37.00000 31.00000 32.00000
v 37.00000 30.00000 32.00000
v 37.00000 32.00000 32.00000
v 37.00000 33.00000 32.00000
v 36.00000 33.00000 32.00000
v 28.00000 30.00000 33.00000
v 28.00000 31.00000 33.00000
v 29.00000 30.00000 33.00000
v 28.00000 32.00000 33.00000
v 29.00000 33.00000 33.00000
v 29.00000 32.00000 33.00000
v 28.00000 33.00000 33.00000
v 30.00000 30.00000 33.00000
v 30.00000 32.00000 33.00000
v 31.00000 30.00000 33.00000
v 31.00000 32.00000 33.00000
v 32.00000 30.00000 33.00000
v 32.00000 32.00000 33.00000
v 33.00000 30.00000 33.00000
v 33.00000 32.00000 33.00000
v 34.00000 30.00000 33.00000
v 34.00000 32.00000 33.00000
v 35.00000 30.00000 33.00000
v 35.00000 32.00000 33.00000
v 36.00000 30.00000 33.00000
v 36.00000 32.00000 33.00000
v 37.00000 31.00000 33.00000
v 37.00000 30.00000 33.00000
v 37.00000 32.00000 33.00000
v 37.00000 33.00000 33.00000
v 36.00000 33.00000 33.00000
v 28.00000 30.00000 34.00000
v 28.00000 31.00000 34.00000
v 29.00000 30.00000 34.00000
v 28.00000 32.00000 34.00000
v 29.00000 33.00000 34.00000
v 29.00000 32.00000 34.00000
v 28.00000 33.00000 34.00000
v 30.00000 30.00000 34.00000
v 30.00000 32.00000 34.00000
v 31.00000 30.00000 34.00000
v 31.00000 32.00000 34.00000
v 32.00000 30.00000 34.00000
v 32.00000 32.00000 34.00000
v 33.00000 30.00000 34.00000
v 33.00000 32.00000 34.00000
v 34.00000 30.00000 34.00000
v 34.00000 32.00000 34.00000
v 35.00000 30.00000 34.00000
v 35.00000 32.00000 34.00000
v 36.00000 30.00000 34.00000
v 36.00000 32.00000 34.00000
v 37.00000 31.00000 34.00000
v 37.00000 30.00000 34.00000
v 37.00000 32.00000 34.00000
v 37.00000 33.00000 34.00000
v 36.00000 33.00000 34.00000
v 28.00000 30.00000 35.00000
v 28.00000 31.00000 35.00000
v 29.00000 30.00000 35.00000
v 29.00000 31.00000 35.00000
v 28.00000 32.00000 35.00000
v 29.00000 32.00000 35.00000
v 28.00000 33.00000 35.00000
v 29.00000 33.00000 35.00000
v 30.00000 30.00000 35.00000
v 30.00000 33.00000 35.00000
v 30.00000 32.00000 35.00000
v 30.00000 33.00000 34.00000
v 31.00000 30.00000 35.00000
v 31.00000 32.00000 35.00000
v 32.00000 30.00000 35.00000
v 32.00000 32.00000 35.00000
v 33.00000 30.00000 35.00000
v 33.00000 32.00000 35.00000
v 34.00000 30.00000 35.00000
v 34.00000 32.00000 35.00000
v 35.00000 30.00000 35.00000
v 35.00000 32.00000 35.00000
v 36.00000 30.00000 35.00000
v 35.00000 33.00000 34.00000
v 35.00000 33.00000 35.00000
v 36.00000 33.00000 35.00000
v 37.00000 31.00000 35.00000
v 37.00000 30.00000 35.00000
v 36.00000 31.00000 35.00000
v 37.00000 32.00000 35.00000
v 36.00000 32.00000 35.00000
v 37.00000 33.00000 35.00000
v 29.00000 30.00000 36.00000
v 29.00000 31.00000 36.00000
v 30.00000 30.00000 36.00000
v 30.00000 31.00000 36.00000
v 29.00000 32.00000 36.00000
v 30.00000 32.00000 36.00000
v 29.00000 33.00000 36.00000
v 30.00000 33.00000 36.00000
v 31.00000 30.00000 36.00000
v 31.00000 33.00000 36.00000
v 31.00000 32.00000 36.00000
v 31.00000 33.00000 35.00000
v 32.00000 30.00000 36.00000
v 32.00000 32.00000 36.00000
v 33.00000 30.00000 36.00000
v 33.00000 32.00000 36.00000
v 34.00000 30.00000 36.00000
v 34.00000 32.00000 36.00000
v 35.00000 30.00000 36.00000
v 34.00000 33.00000 35.00000
v 34.00000 33.00000 36.00000
v 35.00000 33.00000 36.00000
v 36.00000 31.00000 36.00000
v 36.00000 30.00000 36.00000
v 35.00000 31.00000 36.00000
v 36.00000 32.00000 36.00000
v 35.00000 32.00000 36.00000
v 36.00000 33.00000 36.00000
v 30.00000 30.00000 37.00000
v 30.00000 31.00000 37.00000
v 31.00000 30.00000 37.00000
v 31.00000 31.00000 37.00000
v 30.00000 32.00000 37.00000
v 31.00000 32.00000 37.00000
v 30.00000 33.00000 37.00000
v 31.00000 33.00000 37.00000
v 32.00000 30.00000 37.00000
v 32.00000 31.00000 37.00000
v 32.00000 32.00000 37.00000
v 32.00000 33.00000 37.00000
v 32.00000 33.00000 36.00000
v 33.00000 30.00000 37.00000
v 33.00000 31.00000 37.00000
v 33.00000 32.00000 37.00000
v 33.00000 33.00000 37.00000
v 33.00000 33.00000 36.00000
v 34.00000 30.00000 37.00000
v 34.00000 31.00000 37.00000
v 34.00000 32.00000 37.00000
v 34.00000 33.00000 37.00000
v 35.00000 31.00000 37.00000
v 35.00000 30.00000 37.00000
v 35.00000 32.00000 37.00000
v 35.00000 33.00000 37.00000

vt 0.06250 0.50000
vt 0.06250 0.25000
vt 0.12500 0.25000
vt 0.12500 0.50000
vt 0.25000 0.50000
vt 0.25000 0.25000
vt 0.31250 0.25000
vt 0.31250 0.50000

g Matrix
usemtl plate-green_Material
f 1/1/3 2/2/3 3/3/3 4/4/3
f 3/1/6 2/2/6 5/3/6 6/4/6
f 7/1/2 5/2/2 2/3/2 1/4/2
f 8/1/3 1/2/3 4/3/3 9/4/3
f 10/1/2 7/2/2 1/3/2 8/4/2
f 11/1/3 8/2/3 9/3/3 12/4/3
f 11/1/5 12/2/5 13/3/5 14/4/5
f 14/1/2 10/2/2 8/3/2 11/4/2
f 6/1/6 5/2/6 15/3/6 16/4/6
f 17/1/2 15/2/2 5/3/2 7/4/2
f 18/1/2 17/2/2 7/3/2 10/4/2
f 14/1/5 13/2/5 19/3/5 20/4/5
f 20/1/2 18/2/2 10/3/2 14/4/2
f 13/1/1 21/2/1 22/3/1 19/4/1
f 16/1/6 15/2/6 23/3/6 24/4/6
f 25/1/2 23/2/2 15/3/2 17/4/2
f 26/1/2 25/2/2 17/3/2 18/4/2
f 20/1/5 19/2/5 27/3/5 28/4/5
f 28/1/2 26/2/2 18/3/2 20/4/2
f 19/1/1 22/2/1 29/3/1 27/4/1
f 24/1/6 23/2/6 30/3/6 31/4/6
f 32/1/2 30/2/2 23/3/2 25/4/2
f 33/1/2 32/2/2 25/3/2 26/4/2
f 28/1/5 27/2/5 34/3/5 35/4/5
f 35/1/2 33/2/2 26/3/2 28/4/2
f 27/1/1 29/2/1 36/3/1 34/4/1
f 37/1/4 38/2/4 39/3/4 40/4/4
f 31/1/6 30/2/6 39/3/6 38/4/6
f 40/1/2 39/2/2 30/3/2 32/4/2
f 41/1/4 37/2/4 40/3/4 42/4/4
f 42/1/2 40/2/2 32/3/2 33/4/2
f 43/1/4 41/2/4 42/3/4 44/4/4
f 35/1/5 34/2/5 43/3/5 44/4/5
f 44/1/2 42/2/2 33/3/2 35/4/2
f 45/1/3 46/2/3 47/3/3 48/4/3
f 47/1/6 46/2/6 3/3/6 49/4/6
f 4/1/2 3/2/2 46/3/2 45/4/2
f 50/1/3 45/2/3 48/3/3 51/4/3
f 9/1/2 4/2/2 45/3/2 50/4/2
f 52/1/3 50/2/3 51/3/3 53/4/3
f 52/1/5 53/2/5 54/3/5 12/4/5
f 12/1/2 9/2/2 50/3/2 52/4/2
f 49/1/6 3/2/6 6/3/6 55/4/6
f 56/1/4 57/2/4 21/3/4 13/4/4
f 12/1/5 54/2/5 56/3/5 13/4/5
f 54/1/1 58/2/1 57/3/1 56/4/1
f 55/1/6 6/2/6 16/3/6 59/4/6
f 21/5/5 57/6/5 60/7/5 22/8/5
f 59/1/6 16/2/6 24/3/6 61/4/6
f 22/5/5 60/6/5 62/7/5 29/8/5
f 61/1/6 24/2/6 31/3/6 63/4/6
f 29/5/5 62/6/5 64/7/5 36/8/5
f 63/1/6 31/2/6 38/3/6 65/4/6
f 34/1/3 36/2/3 64/3/3 66/4/3
f 34/1/5 66/2/5 67/3/5 43/4/5
f 66/1/1 64/2/1 68/3/1 67/4/1
f 69/1/4 70/2/4 71/3/4 72/4/4
f 65/1/6 38/2/6 71/3/6 70/4/6
f 72/1/2 71/2/2 38/3/2 37/4/2
f 73/1/4 69/2/4 72/3/4 74/4/4
f 74/1/2 72/2/2 37/3/2 41/4/2
f 75/1/4 73/2/4 74/3/4 76/4/4
f 43/1/5 67/2/5 75/3/5 76/4/5
f 76/1/2 74/2/2 41/3/2 43/4/2
f 77/1/3 78/2/3 79/3/3 80/4/3
f 79/1/6 78/2/6 47/3/6 81/4/6
f 48/1/2 47/2/2 78/3/2 77/4/2
f 82/1/3 77/2/3 80/3/3 83/4/3
f 51/1/2 48/2/2 77/3/2 82/4/2
f 84/1/3 82/2/3 83/3/3 85/4/3
f 84/1/5 85/2/5 86/3/5 53/4/5
f 53/1/2 51/2/2 82/3/2 84/4/2
f 81/1/6 47/2/6 49/3/6 87/4/6
f 88/1/4 89/2/4 58/3/4 54/4/4
f 53/1/5 86/2/5 88/3/5 54/4/5
f 86/1/1 90/2/1 89/3/1 88/4/1
f 87/1/6 49/2/6 55/3/6 91/4/6
f 58/5/5 89/6/5 92/7/5 57/8/5
f 91/1/6 55/2/6 59/3/6 93/4/6
f 57/5/5 92/6/5 94/7/5 60/8/5
f 93/1/6 59/2/6 61/3/6 95/4/6
f 60/5/5 94/6/5 96/7/5 62/8/5
f 95/1/6 61/2/6 63/3/6 97/4/6
f 62/5/5 96/6/5 98/7/5 64/8/5
f 97/1/6 63/2/6 65/3/6 99/4/6
f 64/5/5 98/6/5 100/7/5 68/8/5
f 99/1/6 65/2/6 70/3/6 101/4/6
f 67/1/3 68/2/3 100/3/3 102/4/3
f 67/1/5 102/2/5 103/3/5 75/4/5
f 102/1/1 100/2/1 104/3/1 103/4/1
f 105/1/4 106/2/4 107/3/4 108/4/4
f 101/1/6 70/2/6 107/3/6 106/4/6
f 108/1/2 107/2/2 70/3/2 69/4/2
f 109/1/4 105/2/4 108/3/4 110/4/4
f 110/1/2 108/2/2 69/3/2 73/4/2
f 111/1/4 109/2/4 110/3/4 112/4/4
f 75/1/5 103/2/5 111/3/5 112/4/5
f 112/1/2 110/2/2 73/3/2 75/4/2
f 80/1/3 79/2/3 113/3/3 114/4/3
f 113/1/6 79/2/6 81/3/6 115/4/6
f 83/1/3 80/2/3 114/3/3 116/4/3
f 117/1/4 118/2/4 90/3/4 86/4/4
f 85/1/3 83/2/3 116/3/3 119/4/3
f 85/1/5 119/2/5 117/3/5 86/4/5
f 115/1/6 81/2/6 87/3/6 120/4/6
f 90/5/5 118/6/5 121/7/5 89/8/5
f 120/1/6 87/2/6 91/3/6 122/4/6
f 89/5/5 121/6/5 123/7/5 92/8/5
f 122/1/6 91/2/6 93/3/6 124/4/6
f 92/5/5 123/6/5 125/7/5 94/8/5
f 124/1/6 93/2/6 95/3/6 126/4/6
f 94/5/5 125/6/5 127/7/5 96/8/5
f 126/1/6 95/2/6 97/3/6 128/4/6
f 96/5/5 127/6/5 129/7/5 98/8/5
f 128/1/6 97/2/6 99/3/6 130/4/6
f 98/5/5 129/6/5 131/7/5 100/8/5
f 130/1/6 99/2/6 101/3/6 132/4/6
f 100/5/5 131/6/5 133/7/5 104/8/5
f 134/1/4 135/2/4 106/3/4 105/4/4
f 132/1/6 101/2/6 106/3/6 135/4/6
f 136/1/4 134/2/4 105/3/4 109/4/4
f 137/1/4 136/2/4 109/3/4 111/4/4
f 103/1/3 104/2/3 133/3/3 138/4/3
f 103/1/5 138/2/5 137/3/5 111/4/5
f 114/1/3 113/2/3 139/3/3 140/4/3
f 139/1/6 113/2/6 115/3/6 141/4/6
f 116/1/3 114/2/3 140/3/3 142/4/3
f 143/1/4 144/2/4 118/3/4 117/4/4
f 119/1/3 116/2/3 142/3/3 145/4/3
f 119/1/5 145/2/5 143/3/5 117/4/5
f 141/1/6 115/2/6 120/3/6 146/4/6
f 118/5/5 144/6/5 147/7/5 121/8/5
f 146/1/6 120/2/6 122/3/6 148/4/6
f 121/5/5 147/6/5 149/7/5 123/8/5
f 148/1/6 122/2/6 124/3/6 150/4/6
f 123/5/5 149/6/5 151/7/5 125/8/5
f 150/1/6 124/2/6 126/3/6 152/4/6
f 125/5/5 151/6/5 153/7/5 127/8/5
f 152/1/6 126/2/6 128/3/6 154/4/6
f 127/5/5 153/6/5 155/7/5 129/8/5
f 154/1/6 128/2/6 130/3/6 156/4/6
f 129/5/5 155/6/5 157/7/5 131/8/5
f 156/1/6 130/2/6 132/3/6 158/4/6
f 131/5/5 157/6/5 159/7/5 133/8/5
f 160/1/4 161/2/4 135/3/4 134/4/4
f 158/1/6 132/2/6 135/3/6 161/4/6
f 162/1/4 160/2/4 134/3/4 136/4/4
f 163/1/4 162/2/4 136/3/4 137/4/4
f 138/1/3 133/2/3 159/3/3 164/4/3
f 138/1/5 164/2/5 163/3/5 137/4/5
f 140/1/3 139/2/3 165/3/3 166/4/3
f 165/1/6 139/2/6 141/3/6 167/4/6
f 142/1/3 140/2/3 166/3/3 168/4/3
f 169/1/4 170/2/4 144/3/4 143/4/4
f 145/1/3 142/2/3 168/3/3 171/4/3
f 145/1/5 171/2/5 169/3/5 143/4/5
f 167/1/6 141/2/6 146/3/6 172/4/6
f 144/5/5 170/6/5 173/7/5 147/8/5
f 172/1/6 146/2/6 148/3/6 174/4/6
f 147/5/5 173/6/5 175/7/5 149/8/5
f 174/1/6 148/2/6 150/3/6 176/4/6
f 149/5/5 175/6/5 177/7/5 151/8/5
f 176/1/6 150/2/6 152/3/6 178/4/6
f 151/5/5 177/6/5 179/7/5 153/8/5
f 178/1/6 152/2/6 154/3/6 180/4/6
f 153/5/5 179/6/5 181/7/5 155/8/5
f 180/1/6 154/2/6 156/3/6 182/4/6
f 155/5/5 181/6/5 183/7/5 157/8/5
f 182/1/6 156/2/6 158/3/6 184/4/6
f 157/5/5 183/6/5 185/7/5 159/8/5
f 186/1/4 187/2/4 161/3/4 160/4/4
f 184/1/6 158/2/6 161/3/6 187/4/6
f 188/1/4 186/2/4 160/3/4 162/4/4
f 189/1/4 188/2/4 162/3/4 163/4/4
f 164/1/3 159/2/3 185/3/3 190/4/3
f 164/1/5 190/2/5 189/3/5 163/4/5
f 166/1/3 165/2/3 191/3/3 192/4/3
f 191/1/6 165/2/6 167/3/6 193/4/6
f 192/1/1 191/2/1 193/3/1 194/4/1
f 168/1/3 166/2/3 192/3/3 195/4/3
f 195/1/1 192/2/1 194/3/1 196/4/1
f 171/1/3 168/2/3 195/3/3 197/4/3
f 171/1/5 197/2/5 198/3/5 169/4/5
f 197/1/1 195/2/1 196/3/1 198/4/1
f 193/1/6 167/2/6 172/3/6 199/4/6
f 200/1/4 201/2/4 173/3/4 202/4/4
f 169/1/5 198/2/5 200/3/5 202/4/5
f 202/1/2 173/2/2 170/3/2 169/4/2
f 199/1/6 172/2/6 174/3/6 203/4/6
f 173/5/5 201/6/5 204/7/5 175/8/5
f 203/1/6 174/2/6 176/3/6 205/4/6
f 175/5/5 204/6/5 206/7/5 177/8/5
f 205/1/6 176/2/6 178/3/6 207/4/6
f 177/5/5 206/6/5 208/7/5 179/8/5
f 207/1/6 178/2/6 180/3/6 209/4/6
f 179/5/5 208/6/5 210/7/5 181/8/5
f 209/1/6 180/2/6 182/3/6 211/4/6
f 181/5/5 210/6/5 212/7/5 183/8/5
f 211/1/6 182/2/6 184/3/6 213/4/6
f 214/1/3 183/2/3 212/3/3 215/4/3
f 214/1/5 215/2/5 216/3/5 190/4/5
f 190/1/2 185/2/2 183/3/2 214/4/2
f 217/1/4 218/2/4 187/3/4 186/4/4
f 213/1/6 184/2/6 187/3/6 218/4/6
f 219/1/1 213/2/1 218/3/1 217/4/1
f 220/1/4 217/2/4 186/3/4 188/4/4
f 221/1/1 219/2/1 217/3/1 220/4/1
f 222/1/4 220/2/4 188/3/4 189/4/4
f 190/1/5 216/2/5 222/3/5 189/4/5
f 216/1/1 221/2/1 220/3/1 222/4/1
f 194/1/3 193/2/3 223/3/3 224/4/3
f 223/1/6 193/2/6 199/3/6 225/4/6
f 224/1/1 223/2/1 225/3/1 226/4/1
f 196/1/3 194/2/3 224/3/3 227/4/3
f 227/1/1 224/2/1 226/3/1 228/4/1
f 198/1/3 196/2/3 227/3/3 229/4/3
f 198/1/5 229/2/5 230/3/5 200/4/5
f 229/1/1 227/2/1 228/3/1 230/4/1
f 225/1/6 199/2/6 203/3/6 231/4/6
f 232/1/4 233/2/4 204/3/4 234/4/4
f 200/1/5 230/2/5 232/3/5 234/4/5
f 234/1/2 204/2/2 201/3/2 200/4/2
f 231/1/6 203/2/6 205/3/6 235/4/6
f 204/5/5 233/6/5 236/7/5 206/8/5
f 235/1/6 205/2/6 207/3/6 237/4/6
f 206/5/5 236/6/5 238/7/5 208/8/5
f 237/1/6 207/2/6 209/3/6 239/4/6
f 208/5/5 238/6/5 240/7/5 210/8/5
f 239/1/6 209/2/6 211/3/6 241/4/6
f 242/1/3 210/2/3 240/3/3 243/4/3
f 242/1/5 243/2/5 244/3/5 215/4/5
f 215/1/2 212/2/2 210/3/2 242/4/2
f 245/1/4 246/2/4 213/3/4 219/4/4
f 241/1/6 211/2/6 213/3/6 246/4/6
f 247/1/1 241/2/1 246/3/1 245/4/1
f 248/1/4 245/2/4 219/3/4 221/4/4
f 249/1/1 247/2/1 245/3/1 248/4/1
f 250/1/4 248/2/4 221/3/4 216/4/4
f 215/1/5 244/2/5 250/3/5 216/4/5
f 244/1/1 249/2/1 248/3/1 250/4/1
f 226/1/3 225/2/3 251/3/3 252/4/3
f 251/1/6 225/2/6 231/3/6 253/4/6
f 252/1/1 251/2/1 253/3/1 254/4/1
f 228/1/3 226/2/3 252/3/3 255/4/3
f 255/1/1 252/2/1 254/3/1 256/4/1
f 230/1/3 228/2/3 255/3/3 257/4/3
f 230/1/5 257/2/5 258/3/5 232/4/5
f 257/1/1 255/2/1 256/3/1 258/4/1
f 253/1/6 231/2/6 235/3/6 259/4/6
f 254/1/1 253/2/1 259/3/1 260/4/1
f 256/1/1 254/2/1 260/3/1 261/4/1
f 232/1/5 258/2/5 262/3/5 263/4/5
f 263/1/2 236/2/2 233/3/2 232/4/2
f 258/1/1 256/2/1 261/3/1 262/4/1
f 259/1/6 235/2/6 237/3/6 264/4/6
f 260/1/1 259/2/1 264/3/1 265/4/1
f 261/1/1 260/2/1 265/3/1 266/4/1
f 263/1/5 262/2/5 267/3/5 268/4/5
f 268/1/2 238/2/2 236/3/2 263/4/2
f 262/1/1 261/2/1 266/3/1 267/4/1
f 264/1/6 237/2/6 239/3/6 269/4/6
f 265/1/1 264/2/1 269/3/1 270/4/1
f 266/1/1 265/2/1 270/3/1 271/4/1
f 268/1/5 267/2/5 272/3/5 243/4/5
f 243/1/2 240/2/2 238/3/2 268/4/2
f 267/1/1 266/2/1 271/3/1 272/4/1
f 273/1/4 274/2/4 241/3/4 247/4/4
f 269/1/6 239/2/6 241/3/6 274/4/6
f 270/1/1 269/2/1 274/3/1 273/4/1
f 275/1/4 273/2/4 247/3/4 249/4/4
f 271/1/1 270/2/1 273/3/1 275/4/1
f 276/1/4 275/2/4 249/3/4 244/4/4
f 243/1/5 272/2/5 276/3/5 244/4/5
f 272/1/1 271/2/1 275/3/1 276/4/1
